<?xml version="1.0" encoding="UTF-8"?>
<svg id="Layer_1" data-name="Layer 1" xmlns="http://www.w3.org/2000/svg" xmlns:xlink="http://www.w3.org/1999/xlink" viewBox="0 0 68 68">
  <defs>
    <style>
      .cls-1 {
        fill: #1e398d;
      }

      .cls-2 {
        fill: #939598;
      }

      .cls-3 {
        fill: #d5a62a;
      }

      .cls-4, .cls-5, .cls-6 {
        fill: none;
      }

      .cls-5 {
        clip-path: url(#clippath);
      }

      .cls-6 {
        clip-path: url(#clippath-1);
      }

      .cls-7 {
        fill: #000104;
      }
    </style>
    <clipPath id="clippath">
      <rect class="cls-4" x=".46" y="24.74" width="67.07" height="18.52"/>
    </clipPath>
    <clipPath id="clippath-1">
      <rect class="cls-4" x=".46" y="24.74" width="67.07" height="18.52"/>
    </clipPath>
  </defs>
  <g id="IMT">
    <g class="cls-5">
      <rect class="cls-3" x="6.37" y="36.3" width=".61" height="2.33"/>
      <polygon class="cls-3" points="7.51 36.3 8.47 36.3 8.96 37.85 8.96 37.85 9.47 36.3 10.4 36.3 10.4 38.63 9.8 38.63 9.81 36.84 9.81 36.84 9.22 38.63 8.66 38.63 8.1 36.84 8.09 36.84 8.1 38.63 7.51 38.63 7.51 36.3"/>
      <polygon class="cls-3" points="11.16 36.76 10.59 36.76 10.59 36.3 12.33 36.3 12.33 36.76 11.77 36.76 11.77 38.63 11.16 38.63 11.16 36.76"/>
      <g class="cls-6">
        <path class="cls-3" d="m8.96,27.35s-.16-.09-.18-.11c-.06-.04-.11-.08-.16-.13-.1-.1-.17-.21-.22-.34-.13-.32-.07-.67.03-1,.07-.25.17-.49.28-.72.04-.08.08-.16.13-.24.01-.02.05-.06.05-.08-.02.31.16.57.26.85.11.3.23.65.19.98-.03.27-.15.62-.37.79"/>
        <path class="cls-3" d="m9.7,28.6c-.01-.21-.12-.39-.23-.56-.11-.17-.2-.37-.23-.58-.03-.22.04-.43.15-.62.06-.1.14-.2.22-.29.01-.01.11-.1.11-.11.09.65.48.85.41,1.4-.03.21-.1.41-.23.58-.05.07-.12.15-.2.18"/>
        <path class="cls-3" d="m9.22,29.94c-.04-.44-.39-.73-.71-.99-.24-.19-.45-.43-.56-.71-.13-.31-.11-.69,0-1.01.05-.15.13-.28.22-.41,0,0,.1.21.6.58.43.32.72.82.76,1.37.03.4-.08.84-.3,1.18"/>
        <path class="cls-3" d="m8.84,30.69c.25-.22.64-.62.76-1.15.07-.3.13-.62.3-.88.14-.23.37-.37.62-.44-.04.24-.03.47,0,.71.03.25.06.55,0,.8-.06.23-.2.43-.37.59-.33.3-.95.45-1.29.38"/>
        <path class="cls-3" d="m7.65,28.02s.2.56.56.93c.2.21.42.38.62.58.21.22.28.56.12.84-.14.25-.45.29-.7.24-.29-.05-.51-.22-.65-.49-.13-.24-.2-.51-.23-.78-.05-.46.1-.9.28-1.31"/>
        <rect class="cls-3" x="8" y="30.9" width="1.9" height=".39"/>
        <rect class="cls-3" x="7.06" y="31.41" width="3.79" height=".51"/>
        <path class="cls-3" d="m13.44,31.27c-.29-.79-.55-1.61-.81-2.41-.25-.78-.49-1.56-.73-2.34h-1.03c.21.71.41,1.43.62,2.14.17.58.33,1.17.49,1.75.09.35.21.74.27,1.09.13.76-.12,1.14-.9,1.14h-1.73v-.47h-1.29v.47h-1.73c-.78,0-1.03-.38-.9-1.14.06-.35.18-.75.27-1.09.16-.59.32-1.17.49-1.75.2-.71.41-1.43.62-2.14h-1.03c-.24.78-.49,1.56-.73,2.34-.26.8-.52,1.62-.81,2.41-.53,1.43.42,2.63,1.9,2.65.49,0,.97.02,1.46.01.1,0,.49,0,.49,0v1.86h1.27v-1.86s.39,0,.49,0c.49,0,.97,0,1.46-.01,1.48-.02,2.43-1.22,1.9-2.65"/>
        <path class="cls-1" d="m2.01,43.26c.85,0,1.54-.69,1.54-1.54s-.69-1.54-1.54-1.54-1.54.69-1.54,1.54.69,1.54,1.54,1.54"/>
        <path class="cls-1" d="m6.64,43.26c.85,0,1.54-.69,1.54-1.54s-.69-1.54-1.54-1.54-1.54.69-1.54,1.54.69,1.54,1.54,1.54"/>
        <path class="cls-1" d="m11.27,43.26c.85,0,1.54-.69,1.54-1.54s-.69-1.54-1.54-1.54-1.54.69-1.54,1.54.69,1.54,1.54,1.54"/>
        <path class="cls-1" d="m15.9,43.26c.85,0,1.54-.69,1.54-1.54s-.69-1.54-1.54-1.54-1.54.69-1.54,1.54.69,1.54,1.54,1.54"/>
        <rect class="cls-7" x="22.07" y="26.68" width=".54" height="2.69"/>
        <path class="cls-7" d="m23.15,27.38h.49v.27h0c.16-.23.38-.32.65-.32.47,0,.68.33.68.78v1.25h-.52v-1.06c0-.24,0-.57-.34-.57-.37,0-.46.41-.46.66v.97h-.52v-1.99Z"/>
        <path class="cls-7" d="m26.69,27.8c-.16-.05-.27-.08-.46-.08-.14,0-.3.05-.3.22,0,.32.9.12.9.83,0,.46-.41.65-.83.65-.2,0-.4-.03-.59-.08l.03-.42c.16.08.33.13.51.13.13,0,.34-.05.34-.24,0-.39-.9-.12-.9-.84,0-.43.37-.62.78-.62.24,0,.4.04.56.07l-.03.39Z"/>
        <path class="cls-7" d="m27.39,27.76h-.38v-.38h.38v-.4l.52-.17v.56h.46v.38h-.46v.93c0,.17.05.33.24.33.09,0,.18-.02.24-.05l.02.41c-.11.03-.23.05-.38.05-.41,0-.63-.25-.63-.64v-1.01Z"/>
        <path class="cls-7" d="m28.73,27.38h.52v1.99h-.52v-1.99Zm0-.86h.52v.49h-.52v-.49Z"/>
        <path class="cls-7" d="m29.92,27.76h-.38v-.38h.38v-.4l.52-.17v.56h.46v.38h-.46v.93c0,.17.05.33.24.33.09,0,.18-.02.24-.05l.02.41c-.11.03-.23.05-.38.05-.41,0-.63-.25-.63-.64v-1.01Z"/>
        <path class="cls-7" d="m33.08,29.37h-.49v-.27h0c-.16.19-.38.32-.65.32-.47,0-.67-.33-.67-.78v-1.25h.52v1.06c0,.24,0,.57.34.57.37,0,.46-.41.46-.66v-.97h.52v1.99Z"/>
        <path class="cls-7" d="m33.78,27.76h-.38v-.38h.38v-.4l.52-.17v.56h.46v.38h-.46v.93c0,.17.05.33.24.33.09,0,.18-.02.24-.05l.02.41c-.11.03-.23.05-.38.05-.41,0-.63-.25-.63-.64v-1.01Z"/>
        <path class="cls-7" d="m36.36,28.18c-.02-.25-.13-.47-.42-.47s-.44.2-.46.47h.88Zm.35,1.08c-.19.1-.41.16-.68.16-.66,0-1.04-.38-1.04-1.03,0-.57.3-1.05.92-1.05.74,0,.95.51.95,1.2h-1.37c.02.32.25.5.57.5.25,0,.47-.09.66-.2v.42Z"/>
        <path class="cls-7" d="m39.24,29.01c.4,0,.5-.36.5-.69,0-.3-.16-.59-.5-.59s-.5.29-.5.59c0,.33.1.69.5.69m0-1.68c.59,0,1.04.4,1.04,1.05,0,.57-.38,1.03-1.04,1.03s-1.04-.46-1.04-1.03c0-.66.45-1.05,1.04-1.05"/>
        <path class="cls-7" d="m40.88,27.76h-.38v-.38h.38v-.28c0-.4.22-.68.63-.68.13,0,.28.02.38.04l-.04.43s-.11-.07-.22-.07c-.17,0-.23.15-.23.3v.25h.45v.38h-.45v1.61h-.52v-1.61Z"/>
        <polygon class="cls-7" points="22.08 31.31 22.95 31.31 23.59 33.35 23.6 33.35 24.24 31.31 25.1 31.31 25.1 34 24.58 34 24.58 31.78 24.58 31.78 23.85 34 23.33 34 22.61 31.78 22.6 31.79 22.6 34 22.08 34 22.08 31.31"/>
        <path class="cls-7" d="m26.37,33.67c.16,0,.28-.07.36-.18.08-.11.11-.25.11-.41h-.22c-.23,0-.57.04-.57.34,0,.17.14.24.33.24m-.61-1.55c.2-.09.47-.15.69-.15.61,0,.86.25.86.84v.25c0,.2,0,.35,0,.5,0,.15.01.29.02.44h-.46c-.02-.1-.02-.24-.02-.3h0c-.12.22-.38.34-.61.34-.35,0-.69-.21-.69-.59,0-.3.14-.47.34-.57.2-.1.45-.12.67-.12h.29c0-.32-.14-.43-.45-.43-.22,0-.44.08-.61.22l-.02-.44Z"/>
        <path class="cls-7" d="m27.82,32.01h.49v.27h0c.16-.23.38-.32.65-.32.47,0,.67.33.67.78v1.25h-.52v-1.06c0-.24,0-.57-.34-.57-.37,0-.46.41-.46.66v.97h-.52v-1.99Z"/>
        <path class="cls-7" d="m30.87,33.67c.16,0,.28-.07.36-.18.08-.11.11-.25.11-.41h-.22c-.23,0-.57.04-.57.34,0,.17.14.24.33.24m-.61-1.55c.2-.09.47-.15.69-.15.61,0,.86.25.86.84v.25c0,.2,0,.35,0,.5,0,.15.01.29.02.44h-.46c-.02-.1-.02-.24-.02-.3h0c-.12.22-.38.34-.61.34-.35,0-.69-.21-.69-.59,0-.3.14-.47.34-.57.2-.1.45-.12.67-.12h.29c0-.32-.14-.43-.45-.43-.22,0-.44.08-.61.22l-.02-.44Z"/>
        <path class="cls-7" d="m33.63,32.99c0-.34-.13-.62-.43-.62-.35,0-.46.32-.46.63,0,.27.14.6.44.6.32,0,.46-.28.46-.61m.52-.97v1.79c0,.54-.22,1.05-1.05,1.05-.2,0-.44-.03-.69-.14l.04-.44c.16.08.42.17.58.17.57,0,.6-.43.6-.77h0c-.1.17-.33.32-.62.32-.59,0-.81-.47-.81-1,0-.48.25-1.03.84-1.03.26,0,.47.09.61.32h0v-.27h.49Z"/>
        <path class="cls-7" d="m35.93,32.81c-.02-.25-.13-.47-.42-.47s-.44.2-.46.47h.88Zm.35,1.08c-.19.1-.41.16-.68.16-.66,0-1.04-.38-1.04-1.03,0-.57.31-1.05.92-1.05.74,0,.95.51.95,1.2h-1.37c.02.32.25.5.57.5.25,0,.47-.09.66-.2v.42Z"/>
        <path class="cls-7" d="m36.82,32.01h.48v.28h0c.16-.24.4-.32.59-.32.28,0,.47.1.59.35.12-.24.38-.35.62-.35.49,0,.63.34.63.78v1.25h-.52v-1.18c0-.19,0-.45-.3-.45-.34,0-.39.41-.39.67v.96h-.52v-1.18c0-.19,0-.45-.3-.45-.34,0-.39.41-.39.67v.96h-.52v-1.99Z"/>
        <path class="cls-7" d="m41.51,32.81c-.02-.25-.13-.47-.42-.47s-.44.2-.46.47h.88Zm.35,1.08c-.19.1-.41.16-.68.16-.66,0-1.04-.38-1.04-1.03,0-.57.3-1.05.92-1.05.74,0,.95.51.95,1.2h-1.37c.02.32.25.5.57.5.25,0,.47-.09.66-.2v.42Z"/>
        <path class="cls-7" d="m42.4,32.01h.49v.27h0c.16-.23.38-.32.65-.32.47,0,.68.33.68.78v1.25h-.52v-1.06c0-.24,0-.57-.34-.57-.37,0-.46.41-.46.66v.97h-.52v-1.99Z"/>
        <path class="cls-7" d="m44.93,32.39h-.38v-.38h.38v-.4l.52-.17v.56h.46v.38h-.46v.93c0,.17.05.33.24.33.09,0,.18-.02.24-.05l.02.41c-.11.03-.23.05-.38.05-.41,0-.63-.25-.63-.64v-1.01Z"/>
        <polygon class="cls-7" points="47.87 31.73 47.1 31.73 47.1 31.31 49.18 31.31 49.18 31.73 48.41 31.73 48.41 34 47.87 34 47.87 31.73"/>
        <path class="cls-7" d="m50.3,32.81c-.02-.25-.13-.47-.42-.47s-.44.2-.46.47h.88Zm.35,1.08c-.19.1-.41.16-.68.16-.66,0-1.04-.38-1.04-1.03,0-.57.3-1.05.92-1.05.74,0,.95.51.95,1.2h-1.37c.02.32.25.5.57.5.25,0,.47-.09.66-.2v.42Z"/>
        <path class="cls-7" d="m52.49,32.44c-.09-.04-.19-.07-.35-.07-.32,0-.53.25-.53.63s.17.65.54.65c.15,0,.31-.05.4-.09l.02.43c-.15.05-.3.07-.52.07-.65,0-.98-.44-.98-1.05,0-.57.34-1.03.96-1.03.21,0,.36.02.5.07l-.05.41Z"/>
        <path class="cls-7" d="m52.91,31.11h.52v1.18h0c.13-.19.35-.32.62-.32.47,0,.68.33.68.78v1.25h-.52v-1.06c0-.24,0-.57-.34-.57-.37,0-.46.41-.46.66v.97h-.52v-2.89Z"/>
        <path class="cls-7" d="m55.23,32.01h.49v.27h0c.16-.23.38-.32.65-.32.47,0,.68.33.68.78v1.25h-.52v-1.06c0-.24,0-.57-.34-.57-.37,0-.46.41-.46.66v.97h-.52v-1.99Z"/>
        <path class="cls-7" d="m58.5,33.65c.4,0,.5-.36.5-.69,0-.3-.16-.59-.5-.59s-.5.29-.5.59c0,.33.1.69.5.69m0-1.68c.59,0,1.04.4,1.04,1.05,0,.57-.38,1.03-1.04,1.03s-1.04-.46-1.04-1.03c0-.66.45-1.05,1.04-1.05"/>
        <rect class="cls-7" x="59.96" y="31.11" width=".52" height="2.89"/>
        <path class="cls-7" d="m61.89,33.65c.4,0,.5-.36.5-.69,0-.3-.16-.59-.5-.59s-.5.29-.5.59c0,.33.1.69.5.69m0-1.68c.59,0,1.04.4,1.04,1.05,0,.57-.38,1.03-1.04,1.03s-1.04-.46-1.04-1.03c0-.66.45-1.05,1.04-1.05"/>
        <path class="cls-7" d="m64.65,32.99c0-.34-.13-.62-.43-.62-.35,0-.46.32-.46.63,0,.27.14.6.44.6.32,0,.46-.28.46-.61m.52-.97v1.79c0,.54-.22,1.05-1.05,1.05-.2,0-.44-.03-.69-.14l.04-.44c.16.08.42.17.58.17.57,0,.6-.43.6-.77h0c-.1.17-.33.32-.62.32-.59,0-.81-.47-.81-1,0-.48.25-1.03.84-1.03.26,0,.47.09.61.32h0v-.27h.49Z"/>
        <path class="cls-7" d="m66.53,33.46h0l.48-1.45h.52l-.74,1.97c-.17.44-.29.87-.83.87-.12,0-.25-.02-.37-.05l.03-.38c.07.02.14.03.27.03.21,0,.34-.14.34-.35l-.76-2.09h.57l.48,1.45Z"/>
        <path class="cls-7" d="m23.38,37.75h-.45v-.17h.64v.96c-.2.09-.39.12-.6.12-.61,0-.98-.4-.98-1s.38-1,.98-1c.15,0,.39.03.52.09l-.02.18c-.15-.08-.33-.1-.5-.1-.5,0-.79.36-.79.84s.28.84.79.84c.12,0,.32-.01.41-.07v-.68Z"/>
        <path class="cls-7" d="m24.03,36.55h.18v.91h0c.08-.16.23-.27.44-.27.38,0,.48.25.48.6v.85h-.17v-.84c0-.24-.05-.46-.34-.46-.31,0-.42.29-.42.54v.76h-.18v-2.08Z"/>
        <path class="cls-7" d="m26.38,37.92h-.05c-.3,0-.66.03-.66.34,0,.19.13.26.29.26.41,0,.42-.36.42-.51v-.09Zm.02.49h0c-.08.17-.27.26-.45.26-.4,0-.47-.27-.47-.4,0-.48.51-.5.87-.5h.03v-.07c0-.24-.09-.36-.32-.36-.15,0-.29.03-.42.12v-.17c.11-.05.29-.1.42-.1.35,0,.5.16.5.53v.63c0,.11,0,.2.01.3h-.17v-.23Z"/>
        <polygon class="cls-7" points="26.84 38.48 27.69 37.36 26.87 37.36 26.87 37.21 27.89 37.21 27.89 37.36 27.04 38.48 27.89 38.48 27.89 38.63 26.84 38.63 26.84 38.48"/>
        <path class="cls-7" d="m28.2,37.21h.18v1.42h-.18v-1.42Zm.18-.38h-.18v-.23h.18v.23Z"/>
        <path class="cls-7" d="m29.62,37.92h-.05c-.3,0-.66.03-.66.34,0,.19.13.26.29.26.41,0,.42-.36.42-.51v-.09Zm.02.49h0c-.08.17-.27.26-.45.26-.4,0-.47-.27-.47-.4,0-.48.51-.5.87-.5h.03v-.07c0-.24-.09-.36-.32-.36-.15,0-.29.03-.42.12v-.17c.11-.05.29-.1.42-.1.35,0,.5.16.5.53v.63c0,.11,0,.2.01.3h-.17v-.23Z"/>
        <path class="cls-7" d="m30.79,37.33c-.32,0-.42.33-.42.59s.11.59.42.59c.33,0,.42-.32.42-.59s-.09-.59-.42-.59m-.59-.78h.18v.91h0c.02-.07.16-.27.44-.27.42,0,.58.31.58.74s-.19.74-.58.74c-.2,0-.35-.08-.44-.26h0v.22h-.18v-2.08Z"/>
        <path class="cls-7" d="m32.55,37.92h-.05c-.3,0-.66.03-.66.34,0,.19.13.26.29.26.41,0,.42-.36.42-.51v-.09Zm.02.49h0c-.08.17-.27.26-.45.26-.4,0-.47-.27-.47-.4,0-.48.51-.5.87-.5h.03v-.07c0-.24-.09-.36-.32-.36-.15,0-.29.03-.42.12v-.17c.11-.05.29-.1.42-.1.35,0,.5.16.5.53v.63c0,.11,0,.2.01.3h-.17v-.23Z"/>
        <path class="cls-7" d="m33.67,38.51c.31,0,.42-.33.42-.59s-.11-.59-.42-.59c-.33,0-.42.32-.42.59s.09.59.42.59m.59.12h-.18v-.22h0c-.09.18-.24.26-.44.26-.39,0-.58-.32-.58-.74s.17-.74.58-.74c.28,0,.42.2.44.27h0v-.91h.18v2.08Z"/>
        <polygon class="cls-7" points="34.78 38.4 35.01 38.4 34.79 39 34.62 39 34.78 38.4"/>
        <path class="cls-7" d="m36.43,38.46h.16c.55,0,.91-.22.91-.82s-.35-.79-.79-.79h-.28v1.61Zm-.19-1.77h.48c.69,0,.97.4.97.97,0,.7-.47.97-1.11.97h-.34v-1.94Z"/>
        <path class="cls-7" d="m38.95,37.82c0-.25-.1-.49-.36-.49s-.42.26-.42.49h.78Zm.09.76c-.12.05-.28.08-.41.08-.47,0-.65-.32-.65-.74s.24-.74.6-.74c.4,0,.56.32.56.7v.09h-.97c0,.3.16.54.47.54.13,0,.31-.05.4-.11v.18Z"/>
        <rect class="cls-7" x="39.48" y="36.55" width=".18" height="2.08"/>
        <path class="cls-7" d="m40.09,36.55h.18v.91h0c.08-.16.23-.27.44-.27.38,0,.48.25.48.6v.85h-.17v-.84c0-.24-.05-.46-.34-.46-.31,0-.42.29-.42.54v.76h-.18v-2.08Z"/>
        <path class="cls-7" d="m41.64,37.21h.18v1.42h-.18v-1.42Zm.17-.38h-.18v-.23h.18v.23Z"/>
        <polygon class="cls-7" points="43.02 36.69 43.26 36.69 44.25 38.4 44.25 38.4 44.25 36.69 44.45 36.69 44.45 38.63 44.19 38.63 43.22 36.96 43.21 36.96 43.21 38.63 43.02 38.63 43.02 36.69"/>
        <path class="cls-7" d="m46.23,36.91c-.12-.06-.3-.08-.43-.08-.5,0-.79.36-.79.84s.27.84.79.84c.13,0,.32-.02.43-.08v.17c-.09.06-.31.08-.43.08-.61,0-.98-.4-.98-1s.38-1,.98-1c.11,0,.34.02.44.07v.18Z"/>
        <path class="cls-7" d="m46.95,37.55h.2c.23,0,.48-.09.48-.36,0-.32-.23-.34-.49-.34h-.2v.69Zm-.19-.86h.5c.35,0,.57.15.57.5,0,.25-.19.42-.43.45h0c.16.03.19.11.25.24l.33.75h-.21l-.28-.66c-.11-.25-.19-.26-.38-.26h-.16v.91h-.19v-1.94Z"/>
        <rect class="cls-2" x="18.91" y="26.52" width=".15" height="12.35"/>
      </g>
    </g>
  </g>
</svg>