<svg width="10" height="10" viewBox="0 0 10 10" fill="none" xmlns="http://www.w3.org/2000/svg">
<path d="M9.44528 3.61479H6.22256L5.24328 0.726887C5.2178 0.660206 5.17238 0.602776 5.11305 0.562244C5.05373 0.521712 4.98331 0.5 4.91119 0.5C4.83907 0.5 4.76865 0.521712 4.70933 0.562244C4.65 0.602776 4.60458 0.660206 4.5791 0.726887L3.5976 3.61479H0.350537C0.257629 3.61499 0.168582 3.65154 0.102886 3.71647C0.0371904 3.78139 0.000196617 3.86938 1.63614e-06 3.9612C-6.91885e-05 3.98083 0.00215959 4.00041 0.00664341 4.01954C0.0114237 4.06851 0.0271418 4.11583 0.0526646 4.15808C0.0781875 4.20033 0.112879 4.23645 0.154237 4.26384L2.80502 6.1089L1.78884 9.02597C1.76483 9.09513 1.76354 9.17002 1.78514 9.23995C1.80674 9.30988 1.85013 9.37128 1.90913 9.4154C1.96378 9.46398 2.03294 9.49368 2.10617 9.5C2.18587 9.49484 2.26254 9.46782 2.32756 9.42197L4.91045 7.59879L7.49335 9.42197C7.55786 9.46876 7.63482 9.49588 7.71474 9.5C7.78765 9.49504 7.85655 9.46513 7.90956 9.4154C7.96901 9.37165 8.01275 9.31026 8.03439 9.2402C8.05603 9.17014 8.05444 9.09508 8.02985 9.02597L7.01367 6.1089L9.6401 4.24707L9.70357 4.1931C9.75736 4.14667 9.79472 4.08446 9.81021 4.01555C9.8257 3.94664 9.8185 3.87465 9.78965 3.81007C9.76081 3.7455 9.71184 3.69172 9.64989 3.65659C9.58794 3.62146 9.51625 3.60682 9.44528 3.61479Z" fill="white"/>
</svg>
